<svg width="84" height="64" viewBox="0 0 84 64" fill="none" xmlns="http://www.w3.org/2000/svg">
<path d="M82.3013 39.4359H77.9543V21.6699H82.3013V39.4359ZM75.9384 22.0899V39.2259H64.8293V22.0899H75.9384ZM69.1763 35.6139H71.5914V25.7019H69.1763V35.6139Z" fill="#00B0FF"/>
<path d="M52.2174 22.0899V25.7019H46.6524V35.6139H52.4274V39.2259H42.5784V22.0899H52.2174ZM53.3724 39.4359V32.0229L50.2014 33.0939V29.1249L53.3724 28.0539V21.6699H57.4464V39.4359H53.3724ZM62.4444 39.4359H58.3494V21.6699H62.4444V39.4359Z" fill="#00B0FF"/>
<path d="M28.7612 29.7549V25.7019H22.4192V22.0899H33.1082V39.2259H28.7612V33.3669H22.4192V29.7549H28.7612ZM39.2612 27.8229H41.0882V31.4349H39.2612V39.4359H34.9142V21.6699H39.2612V27.8229Z" fill="#00B0FF"/>
<path d="M11.0801 40.2759C8.43406 40.2759 6.39706 39.9819 4.96906 39.3939C3.52006 38.8059 2.80606 37.8189 2.80606 36.4329C2.80606 35.0469 3.52006 34.0599 4.96906 33.4719C6.39706 32.9049 8.43406 32.6109 11.0801 32.6109C12.3821 32.6109 13.5581 32.6949 14.6081 32.8209C15.6161 32.9679 16.4981 33.1779 17.2121 33.4719C17.9051 33.7869 18.4301 34.1859 18.8081 34.6689C19.1651 35.1729 19.3541 35.7609 19.3541 36.4329C19.3541 37.8189 18.6401 38.8059 17.2121 39.3939C15.7631 39.9819 13.7261 40.2759 11.0801 40.2759ZM14.5661 25.4919H3.22606V21.8799H18.9131V28.0539H14.5661V25.4919ZM1.98706 28.7259H7.63606V26.7099H11.9831V28.7259H20.1521V31.9179H1.98706V28.7259ZM11.0801 37.1679C12.2981 37.1679 13.2641 37.1049 13.9781 37.0209C14.6501 36.9369 15.0071 36.7269 15.0071 36.4329C15.0071 36.1389 14.6501 35.9499 13.9781 35.8449C13.2641 35.7609 12.2981 35.6979 11.0801 35.6979C9.84106 35.6979 8.87506 35.7609 8.20306 35.8449C7.48906 35.9499 7.15306 36.1389 7.15306 36.4329C7.15306 36.7269 7.48906 36.9369 8.20306 37.0209C8.87506 37.1049 9.84106 37.1679 11.0801 37.1679Z" fill="#00B0FF"/>
</svg>
