<svg width="24" height="24" viewBox="0 0 24 24" fill="none" xmlns="http://www.w3.org/2000/svg">
<path d="M8 17L8.70711 16.2929C8.51957 16.1054 8.26522 16 8 16V17ZM12 21L11.2929 21.7071C11.6834 22.0976 12.3166 22.0976 12.7071 21.7071L12 21ZM16 17V16C15.7348 16 15.4804 16.1054 15.2929 16.2929L16 17ZM4 6C4 5.44772 4.44772 5 5 5V3C3.34315 3 2 4.34315 2 6H4ZM4 15V6H2V15H4ZM5 16C4.44772 16 4 15.5523 4 15H2C2 16.6569 3.34315 18 5 18V16ZM8 16H5V18H8V16ZM12.7071 20.2929L8.70711 16.2929L7.29289 17.7071L11.2929 21.7071L12.7071 20.2929ZM15.2929 16.2929L11.2929 20.2929L12.7071 21.7071L16.7071 17.7071L15.2929 16.2929ZM19 16H16V18H19V16ZM20 15C20 15.5523 19.5523 16 19 16V18C20.6569 18 22 16.6569 22 15H20ZM20 6V15H22V6H20ZM19 5C19.5523 5 20 5.44772 20 6H22C22 4.34315 20.6569 3 19 3V5ZM5 5H19V3H5V5Z" fill="#030712"/>
<path d="M10 9C10 8.33333 10.4 7 12 7C13.6 7 14 8.33333 14 9C14 9.5039 13.7715 10.3887 12.969 10.7907C12.4752 11.038 12 11.4477 12 12V12" stroke="#030712" stroke-width="2" stroke-linecap="round" stroke-linejoin="round"/>
<circle cx="11.9999" cy="15.0893" r="1.1" fill="#030712"/>
</svg>
